<?xml version="1.0" encoding="utf-8"?><svg viewBox="0 0 33 34" xmlns="http://www.w3.org/2000/svg" xmlns:xlink="http://www.w3.org/1999/xlink"><style>:root>svg{display:none}:root>svg:target{display:block}</style><svg fill="none" viewBox="0 0 32 32" id="fb" xmlns="http://www.w3.org/2000/svg"><path fill-rule="evenodd" clip-rule="evenodd" d="M15.949.485c2.885.033 5.49.742 7.818 2.127a15.609 15.609 0 0 1 5.555 5.59c1.377 2.34 2.082 4.962 2.114 7.865-.081 3.97-1.334 7.362-3.757 10.174-2.423 2.812-5.526 4.552-8.74 5.219V20.327h3.038l.687-4.375h-4.6v-2.866a2.49 2.49 0 0 1 .53-1.645c.368-.469 1.016-.715 1.944-.74h2.777V6.87c-.04-.012-.418-.063-1.135-.152a22.545 22.545 0 0 0-2.447-.152c-1.851.009-3.316.531-4.393 1.567s-1.627 2.534-1.65 4.495v3.325h-3.5v4.375h3.5V31.46c-3.945-.667-7.048-2.407-9.471-5.219C1.796 23.429.543 20.037.46 16.067c.033-2.903.738-5.524 2.114-7.866a15.609 15.609 0 0 1 5.556-5.59C10.458 1.228 13.064.519 15.95.486Z" fill="#fff"/></svg><svg fill="none" viewBox="0 0 32 32" id="inst" xmlns="http://www.w3.org/2000/svg"><path d="M16.315 32h-.319a111.24 111.24 0 0 1-7.08-.195c-2.066-.126-3.952-.84-5.455-2.065-1.45-1.182-2.44-2.78-2.942-4.75-.437-1.715-.46-3.399-.483-5.027A350.616 350.616 0 0 1 0 16.003c.003-1.414.02-2.798.036-3.966.022-1.628.046-3.312.483-5.027.503-1.97 1.493-3.568 2.942-4.75C4.964 1.035 6.851.321 8.917.195c2.254-.137 4.572-.2 7.085-.195 2.51-.005 4.826.058 7.08.195 2.067.126 3.953.84 5.455 2.065 1.45 1.182 2.44 2.78 2.943 4.75.437 1.715.46 3.399.483 5.027.016 1.168.033 2.552.036 3.96v.006a343.49 343.49 0 0 1-.036 3.96c-.023 1.628-.046 3.311-.483 5.026-.503 1.97-1.493 3.569-2.943 4.75-1.502 1.226-3.388 1.94-5.455 2.066-2.158.13-4.376.195-6.767.195Zm-.319-2.5a109.08 109.08 0 0 0 6.934-.19c1.563-.096 2.918-.603 4.027-1.508 1.026-.837 1.733-1.99 2.1-3.43.365-1.428.386-2.961.406-4.443.016-1.16.032-2.535.036-3.93-.004-1.393-.02-2.768-.036-3.928-.02-1.482-.041-3.015-.406-4.443-.367-1.44-1.074-2.594-2.1-3.43-1.11-.905-2.464-1.412-4.027-1.507a109.23 109.23 0 0 0-6.928-.19c-2.467-.007-4.733.056-6.934.19-1.562.095-2.917.602-4.027 1.506-1.026.837-1.732 1.991-2.1 3.431-.364 1.428-.385 2.96-.405 4.443a352.652 352.652 0 0 0-.036 3.932c.003 1.389.02 2.764.036 3.926.02 1.482.041 3.015.405 4.442.368 1.44 1.074 2.595 2.1 3.431 1.11.905 2.465 1.412 4.027 1.507 2.201.134 4.468.197 6.928.19Zm-.06-5.688c-4.307 0-7.812-3.504-7.812-7.812s3.505-7.813 7.813-7.813 7.812 3.505 7.812 7.813-3.504 7.812-7.812 7.812Zm0-13.125A5.319 5.319 0 0 0 10.625 16a5.319 5.319 0 0 0 5.313 5.312A5.319 5.319 0 0 0 21.249 16a5.319 5.319 0 0 0-5.312-5.313Zm8.688-5a1.875 1.875 0 1 0 0 3.75 1.875 1.875 0 0 0 0-3.75Z" fill="#fff"/></svg><svg fill="none" viewBox="0 0 18 24" id="location" xmlns="http://www.w3.org/2000/svg"><path d="M.563 8.438c0 4.167 3.181 8.69 5.99 12.597a94.545 94.545 0 0 1 1.862 2.652.703.703 0 0 0 1.17 0c.556-.834 1.195-1.724 1.863-2.652 2.808-3.908 5.99-8.43 5.99-12.598C17.438 3.785 13.652 0 9 0 4.347 0 .562 3.785.562 8.438Zm12.656 0A4.223 4.223 0 0 1 9 12.655a4.223 4.223 0 0 1-4.219-4.219A4.223 4.223 0 0 1 9 4.22a4.223 4.223 0 0 1 4.219 4.218Z" fill="#fff"/><path d="M9 11.25a2.813 2.813 0 1 0 0-5.625 2.813 2.813 0 0 0 0 5.625Z" fill="#fff"/></svg><svg fill="none" viewBox="0 0 33 34" id="pinterest" xmlns="http://www.w3.org/2000/svg"><path d="M32 17.48C32.24 8.32 24.88.88 15.76 1 7 1.12-.08 8.36 0 17.12.04 23.4 3.72 28.8 9 31.4c.32.16.68-.08.64-.44-.04-1.04 0-2.12.2-3 .2-.88 1-4.24 1.52-6.44.24-1.08.28-2.2.08-3.28-.08-.36-.12-.76-.12-1.24 0-2.36 1.36-4.12 3.08-4.12 1.44 0 2.16 1.08 2.16 2.4 0 1.44-.92 3.64-1.4 5.68-.4 1.68.84 3.08 2.52 3.08 3.04 0 5.36-3.2 5.36-7.8 0-4.08-2.92-6.92-7.12-6.92-4.84 0-7.68 3.64-7.68 7.4 0 1.48.56 3.04 1.28 3.88.12.16.16.32.12.48-.12.52-.4 1.68-.48 1.92-.08.32-.24.36-.56.24-2.12-1.04-3.48-4.16-3.48-6.64C5.12 11.24 9 6.32 16.36 6.32c5.88 0 10.48 4.2 10.48 9.84 0 5.88-3.68 10.56-8.84 10.56-1.36 0-2.64-.56-3.4-1.32a.429.429 0 0 0-.72.2c-.28 1-.68 2.68-.84 3.2-.24.96-.76 2.08-1.32 3.08-.16.24 0 .6.28.64 1.32.32 2.68.52 4.08.48 8.48-.08 15.68-7.12 15.92-15.52Z" fill="#fff"/></svg><svg fill="none" viewBox="0 0 21 20" id="star" xmlns="http://www.w3.org/2000/svg"><path d="m10.667 0 3.09 6.26 6.91 1.01-5 4.87 1.18 6.88-6.18-3.25-6.18 3.25 1.18-6.88-5-4.87 6.91-1.01L10.667 0Z" fill="#FFC107"/></svg><svg fill="none" viewBox="0 0 26 22" id="twitter" xmlns="http://www.w3.org/2000/svg"><path d="M25.768 3.064c-.96.416-1.952.704-3.008.832A5.12 5.12 0 0 0 25.064.984c-1.024.608-2.144 1.024-3.328 1.28a5.251 5.251 0 0 0-9.088 3.584c0 .416.032.8.128 1.184C8.424 6.84 4.584 4.728 1.992 1.56c-1.856 3.328.224 6.08 1.6 7.008-.832 0-1.664-.256-2.368-.64 0 2.592 1.824 4.736 4.192 5.216-.512.16-1.664.256-2.368.096.672 2.08 2.624 3.616 4.896 3.648-1.792 1.408-4.416 2.528-7.776 2.176a14.804 14.804 0 0 0 8.064 2.368c9.664 0 14.912-8 14.912-14.912 0-.224 0-.448-.032-.672 1.088-.8 1.984-1.728 2.656-2.784Z" fill="#fff"/></svg></svg>